#N canvas 827 239 527 327 12;
#X obj 268 169 metro;
#X obj 289 104 expr 60000/(8*$f1);
#X obj 289 55 f \$1;
#X obj 289 12 loadbang;
#X obj 176 18 inlet;
#X obj 116 44 inlet;
#X obj 274 225 f;
#X obj 349 225 + 1;
#X obj 215 313 mod 32;
#X obj 311 313 mod 16;
#X obj 412 320 mod 8;
#X obj 508 320 mod 4;
#X obj 598 320 mod 2;
#X obj 215 390 select 0;
#X obj 311 390 select 0;
#X obj 407 390 select 0;
#X obj 503 390 select 0;
#X obj 599 390 select 0;
#X obj 198 472 outlet;
#X obj 311 472 outlet;
#X obj 424 472 outlet;
#X obj 537 472 outlet;
#X obj 625 482 outlet;
#X obj 728 460 outlet;
#X connect 0 0 6 0;
#X connect 0 0 23 0;
#X connect 1 0 0 1;
#X connect 2 0 1 0;
#X connect 3 0 2 0;
#X connect 4 0 1 0;
#X connect 5 0 0 0;
#X connect 6 0 7 0;
#X connect 6 0 8 0;
#X connect 6 0 9 0;
#X connect 6 0 10 0;
#X connect 6 0 11 0;
#X connect 6 0 12 0;
#X connect 7 0 6 1;
#X connect 8 0 13 0;
#X connect 9 0 14 0;
#X connect 10 0 15 0;
#X connect 11 0 16 0;
#X connect 12 0 17 0;
#X connect 13 0 18 0;
#X connect 14 0 19 0;
#X connect 15 0 20 0;
#X connect 16 0 21 0;
#X connect 17 0 22 0;
