#N canvas 827 239 527 327 12;
#X obj 158 107 inlet;
#X obj 158 166 f;
#X obj 226 166 + 1;
#X obj 158 223 mod \$1;
#X obj 158 300 + \$3;
#X obj 158 353 * \$2;
#X obj 158 393 % \$1, f 9;
#X obj 158 455 < \$2;
#X obj 144 508 select 1;
#X obj 144 547 outlet;
#X obj 306 142 inlet;
#X obj 454 177 inlet;
#X obj 467 353 inlet;
#X text 367 139 bar lenght;
#X text 482 204 hits per bar;
#X text 533 353 rotation;
#X connect 0 0 1 0;
#X connect 1 0 2 0;
#X connect 1 0 3 0;
#X connect 2 0 1 1;
#X connect 3 0 4 0;
#X connect 4 0 5 0;
#X connect 5 0 6 0;
#X connect 6 0 7 0;
#X connect 7 0 8 0;
#X connect 8 0 9 0;
#X connect 10 0 3 1;
#X connect 10 0 6 1;
#X connect 11 0 5 1;
#X connect 11 0 7 1;
#X connect 12 0 4 1;
