#N canvas 827 239 527 327 12;
#X obj 253 173 inlet;
#X obj 411 173 inlet;
#X obj 253 234 f;
#X obj 317 234 + 1;
#X obj 397 317 mod;
#X obj 411 245 max;
#X obj 487 173 loadbang;
#X obj 487 206 f \$1;
#X obj 397 361 select 0;
#X obj 397 418 outlet;
#X obj 487 418 outlet;
#X obj 623 173 inlet;
#X msg 626 216 0;
#X connect 0 0 2 0;
#X connect 1 0 5 0;
#X connect 2 0 3 0;
#X connect 2 0 4 0;
#X connect 3 0 2 1;
#X connect 4 0 8 0;
#X connect 5 0 4 1;
#X connect 6 0 7 0;
#X connect 7 0 5 1;
#X connect 8 0 9 0;
#X connect 8 1 10 0;
#X connect 11 0 12 0;
#X connect 12 0 2 0;
