#N canvas 827 239 527 327 12;
#X obj 319 1042 dac~;
#X obj 321 146 tgl 25 0 empty empty empty 17 7 0 10 #191919 #e1e1e1 #e1e1e1 0 1;
#X obj 378 922 *~;
#X obj 385 316 bng 25 250 50 0 empty empty empty 17 7 0 10 #191919 #e1e1e1 #e1e1e1;
#X obj 199 274 everyn;
#X obj 199 321 bng 25 250 50 0 empty empty empty 17 7 0 10 #191919 #e1e1e1 #e1e1e1;
#X obj 234 319 bng 25 250 50 0 empty empty empty 17 7 0 10 #191919 #e1e1e1 #e1e1e1;
#X obj 578 250 euclid;
#X obj 516 881 osc~, f 13;
#X obj 379 215 clockbpm 110;
#X floatatom 547 676 5 0 0 0 - - - 12;
#X obj 547 472 + 48;
#X obj 547 406 random 25;
#X obj 544 785 mtof;
#X msg 210 215 3;
#X obj 319 988 *~;
#X floatatom 168 972 5 0 1 0 - - - 12;
#X obj 547 569 MajorPentScaleQuant;
#X obj 751 472 + 48;
#X obj 751 406 random 25;
#X obj 751 569 MajorPentScaleQuant;
#X obj 496 293 bng 25 250 50 0 empty empty empty 17 7 0 10 #191919 #e1e1e1 #e1e1e1;
#X obj 687 895 osc~, f 13;
#X floatatom 758 668 5 0 0 0 - - - 12;
#X obj 755 777 mtof;
#X obj 645 955 *~;
#X floatatom 698 191 5 0 0 0 - - - 12;
#X floatatom 593 191 5 0 0 0 - - - 12;
#X obj 676 305 bng 25 250 50 0 empty empty empty 17 7 0 10 #191919 #e1e1e1 #e1e1e1;
#X obj 400 29 loadbang;
#X obj 219 912 r volume;
#X obj 123 785 loadbang;
#X obj 219 863 v volume;
#X msg 123 863 \; volume 0.6;
#X obj 792 201 print;
#X obj 747 67 loadbang;
#X obj 618 29 v steps;
#X obj 734 29 v hits;
#X msg 593 122 \; steps 8;
#X msg 698 122 \; hits 3, f 13;
#X obj 876 122 r steps;
#X obj 951 122 r hits;
#X obj 218 41 v start;
#X obj 321 85 r start;
#X obj 289 41 v bpm, f 10;
#X obj 462 152 r bpm;
#X obj 309 704 vline~;
#X msg 299 633 0.5 200 0 \, 0.2 200 200 \, 0 500 1100;
#X obj 838 896 vline~;
#X msg 848 820 0.5 200 0 \, 0.2 200 200 \, 0 500 1100;
#X obj -42 491 print;
#X floatatom 34 474 5 0 1 0 - - - 12;
#X floatatom 137 444 5 0 1 0 - - - 12;
#X msg 25 620 \$1 200 0 \, \$2 200 200 \, 0 500 1100;
#X obj 143 485 t b f;
#X obj 34 564 pack f f f;
#X floatatom 228 444 5 0 1 0 - - - 12;
#X obj 234 485 t b f;
#X obj -42 321 chordculator2;
#X connect 1 0 9 0;
#X connect 1 0 14 0;
#X connect 2 0 15 0;
#X connect 3 0 12 0;
#X connect 3 0 47 0;
#X connect 4 0 5 0;
#X connect 4 1 6 0;
#X connect 7 0 28 0;
#X connect 8 0 2 0;
#X connect 9 0 3 0;
#X connect 9 1 4 0;
#X connect 9 1 21 0;
#X connect 9 3 7 0;
#X connect 10 0 13 0;
#X connect 11 0 17 0;
#X connect 12 0 11 0;
#X connect 13 0 8 0;
#X connect 14 0 4 1;
#X connect 15 0 0 0;
#X connect 15 0 0 1;
#X connect 16 0 15 1;
#X connect 17 0 10 0;
#X connect 18 0 20 0;
#X connect 19 0 18 0;
#X connect 20 0 23 0;
#X connect 21 0 19 0;
#X connect 21 0 49 0;
#X connect 22 0 25 0;
#X connect 23 0 24 0;
#X connect 24 0 22 0;
#X connect 25 0 15 0;
#X connect 26 0 7 2;
#X connect 27 0 7 1;
#X connect 28 0 19 0;
#X connect 30 0 16 0;
#X connect 31 0 33 0;
#X connect 33 0 16 0;
#X connect 35 0 38 0;
#X connect 35 0 39 0;
#X connect 38 0 27 0;
#X connect 39 0 26 0;
#X connect 39 0 34 0;
#X connect 40 0 27 0;
#X connect 41 0 26 0;
#X connect 43 0 1 0;
#X connect 45 0 9 1;
#X connect 46 0 2 1;
#X connect 47 0 46 0;
#X connect 48 0 25 1;
#X connect 49 0 48 0;
#X connect 51 0 55 0;
#X connect 52 0 54 0;
#X connect 54 0 55 0;
#X connect 54 1 55 1;
#X connect 55 0 53 0;
#X connect 56 0 57 0;
#X connect 57 0 55 0;
#X connect 57 1 55 2;
#X connect 58 0 50 0;
