#N canvas 827 239 527 327 12;
#X obj 977 147 tgl 115 0 empty empty empty 17 7 0 10 #191919 #e1e1e1 #e1e1e1 0 1;
#X obj 790 109 loadbang;
#X obj 207 59 v start;
#X obj 977 97 r start;
#X obj 302 59 v bpm, f 10;
#X obj 1150 237 r bpm;
#X obj 977 362 bng 25 250 50 0 empty empty empty 17 7 0 10 #191919 #e1e1e1 #e1e1e1;
#X obj 1008 362 bng 25 250 50 0 empty empty empty 17 7 0 10 #191919 #e1e1e1 #e1e1e1;
#X obj 1046 362 bng 25 250 50 0 empty empty empty 17 7 0 10 #191919 #e1e1e1 #e1e1e1;
#X obj 1080 362 bng 25 250 50 0 empty empty empty 17 7 0 10 #191919 #e1e1e1 #e1e1e1;
#X obj 1111 362 bng 25 250 50 0 empty empty empty 17 7 0 10 #191919 #e1e1e1 #e1e1e1;
#X obj 1149 362 bng 25 250 50 0 empty empty empty 17 7 0 10 #191919 #e1e1e1 #e1e1e1;
#X obj 485 681 euclid, f 37;
#X floatatom 638 632 5 0 0 0 - - - 12;
#X floatatom 564 632 5 0 0 0 - - - 12;
#X obj 790 195 s triggerBang;
#X obj -1 59 r triggerBang;
#X obj 1008 426 s 4th;
#X obj 485 601 r 4th;
#X obj 485 750 bng 25 250 50 0 empty empty empty 17 7 0 10 #191919 #e1e1e1 #e1e1e1;
#X floatatom 720 632 5 0 0 0 - - - 12;
#X obj 302 94 v steps1;
#X obj 302 126 v hits1;
#X obj 302 159 v rotation1;
#X obj 883 681 euclid, f 38;
#X floatatom 1047 618 5 0 0 0 - - - 12;
#X floatatom 962 622 5 0 0 0 - - - 12;
#X obj 883 750 bng 25 250 50 0 empty empty empty 17 7 0 10 #191919 #e1e1e1 #e1e1e1;
#X floatatom 1128 624 5 0 0 0 - - - 12;
#X obj 1047 568 r hits1;
#X obj 1128 568 r rotation1;
#X obj 1070 426 s 8th;
#X obj 883 601 r 8th;
#X obj 962 568 r steps1;
#X obj 384 94 v steps2;
#X obj 384 126 v hits2;
#X obj 384 159 v rotation2;
#X obj 479 94 v steps3;
#X obj 479 126 v hits3;
#X obj 479 159 v rotation3;
#X obj 467 985 euclid, f 38;
#X floatatom 631 922 5 0 0 0 - - - 12;
#X floatatom 546 926 5 0 0 0 - - - 12;
#X obj 467 1054 bng 25 250 50 0 empty empty empty 17 7 0 10 #191919 #e1e1e1 #e1e1e1;
#X floatatom 712 928 5 0 0 0 - - - 12;
#X obj 861 973 euclid, f 38;
#X floatatom 1025 910 5 0 0 0 - - - 12;
#X floatatom 940 914 5 0 0 0 - - - 12;
#X obj 861 1042 bng 25 250 50 0 empty empty empty 17 7 0 10 #191919 #e1e1e1 #e1e1e1;
#X floatatom 1106 916 5 0 0 0 - - - 12;
#X obj 861 897 r 8th;
#X obj 546 872 r steps2;
#X obj 631 872 r hits2;
#X obj 712 872 r rotation2;
#X obj 940 860 r steps3;
#X obj 1025 860 r hits3;
#X obj 1106 860 r rotation3;
#X obj 467 897 r 4th;
#X obj 562 1298 random 24;
#X obj 562 1386 MinPentScaleQuant;
#X floatatom 562 1345 5 0 0 0 - - - 12;
#X obj 49 1042 dac~;
#X obj 49 936 *~;
#X floatatom 259 922 5 0 1 0 - - - 12;
#X obj 259 872 r volume;
#X obj 384 59 v volume;
#X obj 718 1524 *~;
#X obj 523 1492 SynVoice;
#X obj 210 205 v filter1Cutoff;
#X obj 210 246 v filter2Cutoff;
#X obj 406 1373 r filter1Cutoff;
#X msg -1 355 \; filter1Cutoff 2000 \; filter2Cutoff 4000, f 17;
#X obj 406 1417 sig~;
#X obj 210 322 v env1_atk_lv;
#X obj 322 322 v env1_atk_time;
#X obj 457 322 v env1_dcy_time;
#X obj 210 287 v env2_atk_lv;
#X obj 322 287 v env2_atk_time;
#X obj 457 287 v env2_dcy_time;
#X obj 1575 1150 r env2_atk_lv;
#X obj 1648 1197 r env2_atk_time;
#X obj 1756 1282 r env2_dcy_time;
#X obj 997 1313 r env1_dcy_time;
#X obj 889 1237 r env1_atk_time;
#X obj 816 1205 r env1_atk_lv;
#X obj 729 1395 SynEnv, f 41;
#X msg 10 482 \; env1_atk_lv 1 \; env1_atk_time 300 \; env1_dcy_time 400, f 26;
#X msg 221 482 \; env2_atk_lv 1 \; env2_atk_time 200 \; env2_dcy_time 300, f 26;
#X obj 10 425 r triggerBang;
#X floatatom 816 1286 5 0 0 0 - - - 12;
#X floatatom 889 1282 5 0 0 0 - - - 12;
#X floatatom 997 1359 5 0 0 0 - - - 12;
#X obj 485 798 s Vc1_Trig;
#X obj 883 798 s Vc2_Trig;
#X obj 467 1108 s Vc3_Trig;
#X obj 861 1108 s Vc4_Trig;
#X obj 562 1205 r Vc1_Trig;
#X obj 718 1588 s~ Voice1;
#X obj 37 618 r~ Voice1;
#X obj 562 1752 random 24;
#X obj 562 1840 MinPentScaleQuant;
#X floatatom 562 1799 5 0 0 0 - - - 12;
#X obj 718 1978 *~;
#X obj 523 1946 SynVoice;
#X obj 406 1827 r filter1Cutoff;
#X obj 406 1871 sig~;
#X obj 997 1767 r env1_dcy_time;
#X obj 903 1740 r env1_atk_time;
#X obj 816 1689 r env1_atk_lv;
#X obj 729 1849 SynEnv, f 41;
#X floatatom 816 1740 5 0 0 0 - - - 12;
#X floatatom 903 1813 5 0 0 0 - - - 12;
#X floatatom 997 1813 5 0 0 0 - - - 12;
#X obj 562 1659 r Vc2_Trig;
#X obj 718 2042 s~ Voice2;
#X obj 93 716 r~ Voice2;
#X floatatom 564 1548 5 0 0 0 - - - 12;
#X floatatom 564 2020 5 0 0 0 - - - 12;
#X obj 1321 1298 random 24;
#X obj 1321 1386 MinPentScaleQuant;
#X floatatom 1321 1345 5 0 0 0 - - - 12;
#X obj 1477 1524 *~;
#X obj 1282 1492 SynVoice;
#X obj 1165 1417 sig~;
#X obj 1488 1395 SynEnv, f 41;
#X floatatom 1575 1286 5 0 0 0 - - - 12;
#X floatatom 1648 1282 5 0 0 0 - - - 12;
#X floatatom 1756 1359 5 0 0 0 - - - 12;
#X obj 1321 1752 random 24;
#X obj 1321 1840 MinPentScaleQuant;
#X floatatom 1321 1799 5 0 0 0 - - - 12;
#X obj 1477 1978 *~;
#X obj 1282 1946 SynVoice;
#X obj 1165 1871 sig~;
#X obj 1488 1849 SynEnv, f 41;
#X floatatom 1575 1740 5 0 0 0 - - - 12;
#X floatatom 1662 1813 5 0 0 0 - - - 12;
#X floatatom 1756 1813 5 0 0 0 - - - 12;
#X floatatom 1323 1552 5 0 0 0 - - - 12;
#X floatatom 1323 2020 5 0 0 0 - - - 12;
#X obj 1321 1205 r Vc3_Trig;
#X obj 1575 1642 r env2_atk_lv;
#X obj 1662 1708 r env2_atk_time;
#X obj 1756 1767 r env2_dcy_time;
#X obj 1321 1659 r Vc4_Trig;
#X obj 1477 2042 s~ Voice4;
#X obj 1165 1827 r filter2Cutoff;
#X obj 1165 1373 r filter2Cutoff;
#X obj 1477 1588 s~ Voice3;
#X obj 201 716 r~ Voice3;
#X obj 308 723 r~ Voice4;
#X obj 977 295 clockbpm 80, f 28;
#X obj 49 985 clip~ -1 1;
#X msg 30 100 \; steps0 7 \; hits0 3 \; rotation0 2 \; steps1 4 \; hits1 3 \; rotation1 2 \; steps2 5 \; hits2 3 \; rotation2 4 \; steps3 7 \; hits3 3 \; rotation3 5 \; volume 0.5, f 22;
#X obj 207 94 v steps0;
#X obj 207 126 v hits0;
#X obj 207 159 v rotation0;
#X obj 564 568 r steps0;
#X obj 638 568 r hits0;
#X obj 720 568 r rotation0;
#X obj 248 387 v mute0;
#X obj 322 387 v mute1;
#X obj 405 387 v mute2;
#X msg 441 482 \; mute0 1 \; mute1 1 \; mute2 1 \; mute3 1, f 13;
#X obj 128 590 r mute0;
#X obj 214 590 r mute1;
#X obj 308 584 r mute2;
#X obj 394 584 r mute3;
#X obj 479 387 v mute3;
#X obj 128 621 pack f 50;
#X obj 128 658 line~;
#X obj 37 681 *~;
#X obj 214 621 pack f 50;
#X obj 214 664 line~;
#X obj 93 786 *~;
#X obj 308 621 pack f 50;
#X obj 308 658 line~;
#X obj 394 621 pack f 50;
#X obj 394 664 line~;
#X obj 221 786 *~;
#X obj 345 778 *~;
#X msg 564 467 \; mute0 0 \; mute1 0 \; mute2 0 \; mute3 0, f 13;
#X connect 0 0 151 0;
#X connect 1 0 15 0;
#X connect 1 0 0 0;
#X connect 3 0 0 0;
#X connect 5 0 151 1;
#X connect 7 0 17 0;
#X connect 8 0 31 0;
#X connect 12 0 19 0;
#X connect 13 0 12 2;
#X connect 14 0 12 1;
#X connect 16 0 153 0;
#X connect 16 0 71 0;
#X connect 18 0 12 0;
#X connect 19 0 92 0;
#X connect 20 0 12 3;
#X connect 24 0 27 0;
#X connect 25 0 24 2;
#X connect 26 0 24 1;
#X connect 27 0 93 0;
#X connect 28 0 24 3;
#X connect 29 0 25 0;
#X connect 30 0 28 0;
#X connect 32 0 24 0;
#X connect 33 0 26 0;
#X connect 40 0 43 0;
#X connect 41 0 40 2;
#X connect 42 0 40 1;
#X connect 43 0 94 0;
#X connect 44 0 40 3;
#X connect 45 0 48 0;
#X connect 46 0 45 2;
#X connect 47 0 45 1;
#X connect 48 0 95 0;
#X connect 49 0 45 3;
#X connect 50 0 45 0;
#X connect 51 0 42 0;
#X connect 52 0 41 0;
#X connect 53 0 44 0;
#X connect 54 0 47 0;
#X connect 55 0 46 0;
#X connect 56 0 49 0;
#X connect 57 0 40 0;
#X connect 58 0 60 0;
#X connect 59 0 67 1;
#X connect 60 0 59 0;
#X connect 62 0 152 0;
#X connect 63 0 62 1;
#X connect 64 0 63 0;
#X connect 66 0 97 0;
#X connect 67 0 66 0;
#X connect 67 1 116 0;
#X connect 70 0 72 0;
#X connect 72 0 67 0;
#X connect 79 0 125 0;
#X connect 80 0 126 0;
#X connect 81 0 127 0;
#X connect 82 0 91 0;
#X connect 83 0 90 0;
#X connect 84 0 89 0;
#X connect 85 0 66 1;
#X connect 88 0 86 0;
#X connect 88 0 87 0;
#X connect 88 0 163 0;
#X connect 89 0 85 1;
#X connect 90 0 85 2;
#X connect 91 0 85 3;
#X connect 96 0 58 0;
#X connect 96 0 85 0;
#X connect 98 0 171 0;
#X connect 99 0 101 0;
#X connect 100 0 103 1;
#X connect 101 0 100 0;
#X connect 102 0 114 0;
#X connect 103 0 102 0;
#X connect 103 1 117 0;
#X connect 104 0 105 0;
#X connect 105 0 103 0;
#X connect 106 0 112 0;
#X connect 107 0 111 0;
#X connect 108 0 110 0;
#X connect 109 0 102 1;
#X connect 110 0 109 1;
#X connect 111 0 109 2;
#X connect 112 0 109 3;
#X connect 113 0 99 0;
#X connect 113 0 109 0;
#X connect 115 0 174 0;
#X connect 118 0 120 0;
#X connect 119 0 122 1;
#X connect 120 0 119 0;
#X connect 121 0 148 0;
#X connect 122 0 121 0;
#X connect 122 1 138 0;
#X connect 123 0 122 0;
#X connect 124 0 121 1;
#X connect 125 0 124 1;
#X connect 126 0 124 2;
#X connect 127 0 124 3;
#X connect 128 0 130 0;
#X connect 129 0 132 1;
#X connect 130 0 129 0;
#X connect 131 0 145 0;
#X connect 132 0 131 0;
#X connect 132 1 139 0;
#X connect 133 0 132 0;
#X connect 134 0 131 1;
#X connect 135 0 134 1;
#X connect 136 0 134 2;
#X connect 137 0 134 3;
#X connect 140 0 118 0;
#X connect 140 0 124 0;
#X connect 141 0 135 0;
#X connect 142 0 136 0;
#X connect 143 0 137 0;
#X connect 144 0 128 0;
#X connect 144 0 134 0;
#X connect 146 0 133 0;
#X connect 147 0 123 0;
#X connect 149 0 179 0;
#X connect 150 0 180 0;
#X connect 151 0 6 0;
#X connect 151 1 7 0;
#X connect 151 2 8 0;
#X connect 151 3 9 0;
#X connect 151 4 10 0;
#X connect 151 5 11 0;
#X connect 152 0 61 0;
#X connect 152 0 61 1;
#X connect 157 0 14 0;
#X connect 158 0 13 0;
#X connect 159 0 20 0;
#X connect 164 0 169 0;
#X connect 165 0 172 0;
#X connect 166 0 175 0;
#X connect 167 0 177 0;
#X connect 169 0 170 0;
#X connect 170 0 171 1;
#X connect 171 0 62 0;
#X connect 172 0 173 0;
#X connect 173 0 174 1;
#X connect 174 0 62 0;
#X connect 175 0 176 0;
#X connect 176 0 179 1;
#X connect 177 0 178 0;
#X connect 178 0 180 1;
#X connect 179 0 62 0;
#X connect 180 0 62 0;
