#N canvas 827 239 527 327 12;
#X obj 209 191 select 0 2 4 5 7 9 11;
#X floatatom 166 102 5 0 0 0 - - - 12;
#X floatatom 339 241 5 0 0 0 - - - 12;
#X obj 210 142 mod 12;
#X floatatom 166 339 5 0 0 0 - - - 12;
#X msg 339 279 -1;
#X obj 166 301 +;
#X msg 222 252 0;
#X obj 166 50 inlet;
#X obj 166 390 outlet;
#X connect 0 0 7 0;
#X connect 0 1 7 0;
#X connect 0 2 7 0;
#X connect 0 3 7 0;
#X connect 0 4 7 0;
#X connect 0 5 7 0;
#X connect 0 6 7 0;
#X connect 0 7 2 0;
#X connect 1 0 3 0;
#X connect 1 0 6 0;
#X connect 2 0 5 0;
#X connect 3 0 0 0;
#X connect 4 0 9 0;
#X connect 5 0 6 1;
#X connect 6 0 4 0;
#X connect 7 0 6 1;
#X connect 8 0 1 0;
