#N canvas 827 239 527 327 12;
#X floatatom 345 255 5 0 0 0 - - - 12;
#X floatatom 518 394 5 0 0 0 - - - 12;
#X obj 389 295 mod 12;
#X floatatom 345 650 5 0 0 0 - - - 12;
#X obj 345 612 +;
#X msg 401 405 0;
#X obj 345 203 inlet;
#X obj 345 701 outlet;
#X obj 388 344 select 0 2 4 7 9;
#X obj 518 513 select 0 2 4 7 9;
#X msg 528 557 -1;
#X msg 637 604 -2;
#X floatatom 637 561 5 0 0 0 - - - 12;
#X obj 518 458 - 1;
#X connect 0 0 2 0;
#X connect 0 0 4 0;
#X connect 1 0 13 0;
#X connect 2 0 8 0;
#X connect 3 0 7 0;
#X connect 4 0 3 0;
#X connect 5 0 4 1;
#X connect 6 0 0 0;
#X connect 8 0 5 0;
#X connect 8 1 5 0;
#X connect 8 2 5 0;
#X connect 8 3 5 0;
#X connect 8 4 5 0;
#X connect 8 5 1 0;
#X connect 9 0 10 0;
#X connect 9 1 10 0;
#X connect 9 2 10 0;
#X connect 9 3 10 0;
#X connect 9 4 10 0;
#X connect 9 5 12 0;
#X connect 10 0 4 1;
#X connect 11 0 4 1;
#X connect 12 0 11 0;
#X connect 13 0 9 0;
