#N canvas 827 239 527 327 12;
#X floatatom 207 188 5 0 0 0 - - - 12;
#X floatatom 380 327 5 0 0 0 - - - 12;
#X obj 251 228 mod 12;
#X floatatom 207 583 5 0 0 0 - - - 12;
#X obj 207 545 +;
#X msg 263 338 0;
#X obj 207 136 inlet;
#X obj 207 634 outlet;
#X msg 390 490 -1;
#X msg 499 537 -2;
#X floatatom 499 494 5 0 0 0 - - - 12;
#X obj 380 391 - 1;
#X obj 250 277 select 0 3 5 7 10;
#X obj 380 446 select 0 3 5 7 10;
#X connect 0 0 2 0;
#X connect 0 0 4 0;
#X connect 1 0 11 0;
#X connect 2 0 12 0;
#X connect 3 0 7 0;
#X connect 4 0 3 0;
#X connect 5 0 4 1;
#X connect 6 0 0 0;
#X connect 8 0 4 1;
#X connect 9 0 4 1;
#X connect 10 0 9 0;
#X connect 11 0 13 0;
#X connect 12 0 5 0;
#X connect 12 1 5 0;
#X connect 12 2 5 0;
#X connect 12 3 5 0;
#X connect 12 4 5 0;
#X connect 12 5 1 0;
#X connect 13 0 8 0;
#X connect 13 1 8 0;
#X connect 13 2 8 0;
#X connect 13 3 8 0;
#X connect 13 4 8 0;
#X connect 13 5 10 0;
