#N canvas 827 239 527 327 12;
#X floatatom 265 299 5 0 0 0 - - - 12;
#X floatatom 438 438 5 0 0 0 - - - 12;
#X obj 309 339 mod 12;
#X floatatom 265 536 5 0 0 0 - - - 12;
#X msg 438 476 -1;
#X obj 265 498 +;
#X msg 321 449 0;
#X obj 265 247 inlet;
#X obj 265 587 outlet;
#X obj 308 388 select 0 2 3 5 7 8 10;
#X connect 0 0 2 0;
#X connect 0 0 5 0;
#X connect 1 0 4 0;
#X connect 2 0 9 0;
#X connect 3 0 8 0;
#X connect 4 0 5 1;
#X connect 5 0 3 0;
#X connect 6 0 5 1;
#X connect 7 0 0 0;
#X connect 9 0 6 0;
#X connect 9 1 6 0;
#X connect 9 2 6 0;
#X connect 9 3 6 0;
#X connect 9 4 6 0;
#X connect 9 5 6 0;
#X connect 9 6 6 0;
#X connect 9 7 1 0;
