#N canvas 827 239 527 327 12;
#X obj 285 202 vline~;
#X msg 285 151 1 \, 0.5 5 \, 0 \$1 5;
#X obj 285 248 *~;
#X obj 285 280 +~ 150;
#X obj 285 327 -~ 29;
#X obj 285 369 mtof~;
#X obj 285 100 inlet;
#X obj 285 416 outlet~;
#X connect 0 0 2 0;
#X connect 0 0 2 1;
#X connect 1 0 0 0;
#X connect 2 0 3 0;
#X connect 3 0 4 0;
#X connect 4 0 5 0;
#X connect 5 0 7 0;
#X connect 6 0 1 0;
