#N canvas 827 239 527 327 12;
#X obj 78 20 bng 25 250 50 0 empty empty empty 17 7 0 10 #191919 #e1e1e1 #e1e1e1;
#X obj 78 77 openpanel;
#X obj 78 164 soundfiler;
#X msg 78 120 read -resize \$1 audioDataL audioDataR;
#N canvas 0 0 450 250 (subpatch) 0;
#X array audioDataL 1.83405e+06 float 0;
#X coords 0 1 1.83405e+06 -1 200 140 1;
#X restore 416 52 graph;
#N canvas 0 0 450 250 (subpatch) 0;
#X array audioDataR 1.83405e+06 float 0;
#X coords 0 1 1.83405e+06 -1 200 140 1;
#X restore 416 206 graph;
#X obj 123 915 dac~, f 5;
#X obj 123 871 *~, f 5;
#X obj 291 837 hsl 128 31 0 1 0 0 empty empty empty -2 -8 0 10 #191919 #e1e1e1 #e1e1e1 0 1;
#X obj 54 243 s sampleEnd;
#X msg 177 243 range 0 \$1;
#X obj 180 286 hsl 128 17 0 1.83405e+06 0 0 empty empty empty -2 -8 0 10 #191919 #e1e1e1 #e1e1e1 0 1;
#X obj 177 318 s sampleStart;
#X obj 76 701 tabread4~ audioDataL;
#X obj 259 701 tabread4~ audioDataR;
#X obj 106 655 vline~;
#X obj 106 580 pack f f f;
#X obj 11 480 bng 25 250 50 0 empty empty empty 17 7 0 10 #191919 #e1e1e1 #e1e1e1;
#X floatatom 452 617 13 0 0 0 - - - 8;
#X obj 201 486 r sampleEnd;
#X msg 106 525 0, f 8;
#X floatatom 177 193 5 0 0 0 - - - 24;
#X msg 106 617 \$1 \, \$2 \$3;
#X text 275 201 Sample Lenght;
#X obj 53 381 r sampleStart;
#X floatatom 319 318 6 0 0 0 - - - 16;
#X obj 36 513 f;
#X obj 106 480 bng 25 250 50 0 empty empty empty 17 7 0 10 #191919 #e1e1e1 #e1e1e1;
#X msg 232 631 stop;
#X text 275 252 Playback position;
#X msg 319 631 \$1 100;
#X obj 319 580 r sampleStart;
#X text 376 640 Scrub;
#X obj 448 506 expr abs($f2-$f1)/ 44.1;
#X obj 448 461 r sampleStart;
#X obj 591 480 r sampleEnd;
#X text 632 524 Playback Rate, f 11;
#X obj 259 351 hsl 128 17 0 1.83405e+06 0 0 empty empty empty -2 -8 0 10 #191919 #e1e1e1 #e1e1e1 0 1;
#X floatatom 364 381 6 0 0 0 - - - 16;
#X obj 280 413 s sampleEnd;
#X obj 350 604 r sampleEnd;
#X floatatom 588 573 8 0 2 0 - - - 36;
#X obj 448 557 / 1;
#X floatatom 548 641 13 0 0 0 - - - 8;
#X connect 0 0 1 0;
#X connect 1 0 3 0;
#X connect 2 0 21 0;
#X connect 3 0 2 0;
#X connect 7 0 6 0;
#X connect 7 0 6 1;
#X connect 8 0 7 1;
#X connect 10 0 11 0;
#X connect 10 0 37 0;
#X connect 11 0 12 0;
#X connect 11 0 25 0;
#X connect 13 0 7 0;
#X connect 14 0 7 0;
#X connect 15 0 13 0;
#X connect 15 0 14 0;
#X connect 16 0 22 0;
#X connect 17 0 26 0;
#X connect 19 0 16 1;
#X connect 20 0 16 0;
#X connect 21 0 9 0;
#X connect 21 0 10 0;
#X connect 22 0 15 0;
#X connect 24 0 26 1;
#X connect 24 0 16 0;
#X connect 26 0 16 0;
#X connect 27 0 20 0;
#X connect 28 0 15 0;
#X connect 30 0 15 0;
#X connect 31 0 30 0;
#X connect 33 0 42 0;
#X connect 33 0 43 0;
#X connect 34 0 33 0;
#X connect 35 0 33 1;
#X connect 37 0 38 0;
#X connect 37 0 39 0;
#X connect 40 0 30 0;
#X connect 41 0 42 1;
#X connect 42 0 16 2;
#X connect 42 0 18 0;
