#N canvas 733 172 450 300 SynEnv 1;
#X obj 1417 1040 vline~;
#X floatatom 1417 817 5 0 1 0 - - - 12;
#X floatatom 1520 786 5 0 1000 0 - - - 12;
#X obj 1520 827 t b f;
#X obj 1617 827 t b f;
#X text 1381 703 Attack Level 0-1;
#X text 1520 703 Attack Time (ms);
#X text 1656 703 Decay Time (ms);
#X floatatom 1640 786 5 0 50000 0 - - - 12;
#X msg 1417 970 \$1 \$2 0 \, \$1 \$2 \$2 \, 0 \$4 \$3;
#X obj 1417 905 pack f f f f, f 35;
#X obj 1721 827 * 2;
#X obj 1721 859 t b f;
#X obj 1296 738 inlet;
#X obj 1417 1091 outlet~;
#X obj 1417 738 inlet;
#X obj 1520 730 inlet;
#X obj 1640 738 inlet;
#X text 1296 703 Bang;
#X connect 0 0 14 0;
#X connect 1 0 10 0;
#X connect 2 0 3 0;
#X connect 2 0 11 0;
#X connect 3 0 10 0;
#X connect 3 1 10 1;
#X connect 4 0 10 0;
#X connect 4 1 10 2;
#X connect 8 0 4 0;
#X connect 9 0 0 0;
#X connect 10 0 9 0;
#X connect 11 0 12 0;
#X connect 12 0 10 0;
#X connect 12 1 10 3;
#X connect 13 0 10 0;
#X connect 15 0 1 0;
#X connect 16 0 2 0;
#X connect 17 0 8 0;
