#N canvas 733 172 450 300 12;
#X obj 933 913 mtof;
#X floatatom 933 974 5 0 0 0 - - - 12;
#X obj 979 1078 osc~;
#X obj 771 1061 phasor~;
#X obj 771 1129 expr~ $v1 > 0.5;
#X obj 794 1356 vcf~ 0.5;
#X obj 933 868 + 48;
#X obj 794 1196 *~;
#X obj 794 1303 *~ 0.75;
#X obj 933 772 inlet;
#X obj 794 1407 outlet~;
#X obj 903 1321 inlet~;
#X obj 1082 1014 outlet;
#X connect 0 0 1 0;
#X connect 1 0 2 0;
#X connect 1 0 3 0;
#X connect 1 0 12 0;
#X connect 2 0 7 1;
#X connect 3 0 4 0;
#X connect 4 0 7 0;
#X connect 5 0 10 0;
#X connect 6 0 0 0;
#X connect 7 0 8 0;
#X connect 8 0 5 0;
#X connect 9 0 6 0;
#X connect 11 0 5 1;
